<?xml version="1.0" standalone="no"?>
<!DOCTYPE svg PUBLIC "-//W3C//DTD SVG 20010904//EN"
 "http://www.w3.org/TR/2001/REC-SVG-20010904/DTD/svg10.dtd">
<svg version="1.0" xmlns="http://www.w3.org/2000/svg"
 width="290.000000pt" height="290.000000pt" viewBox="0 0 290.000000 290.000000"
 preserveAspectRatio="xMidYMid meet">
<metadata>
Created by potrace 1.11, written by Peter Selinger 2001-2013
</metadata>
<g transform="translate(0.000000,290.000000) scale(0.100000,-0.100000)"
fill="#000000" stroke="none">
<path d="M917 2223 c-2 -1 -41 -4 -88 -6 l-84 -3 4 -114 c2 -63 5 -128 6 -145
2 -16 3 -39 4 -49 1 -17 7 -18 51 -13 l50 6 0 -149 0 -150 -40 0 -40 0 0 -160
0 -160 40 0 40 0 0 -95 0 -95 160 0 160 0 0 101 0 101 218 -6 c259 -7 351 -13
414 -27 52 -12 58 -24 72 -124 3 -22 5 -41 6 -42 0 -2 75 -3 166 -3 l167 0 -7
73 c-12 132 -35 197 -104 284 l-40 50 20 59 c18 50 21 84 21 215 -1 153 -1
156 -32 220 -54 113 -171 205 -286 225 -37 6 -872 13 -878 7z m835 -337 c22
-10 30 -36 32 -105 3 -74 -11 -138 -30 -145 -32 -12 -175 -23 -402 -32 l-172
-6 0 150 0 151 278 -3 c152 -2 285 -6 294 -10z"/>
<path d="M756 889 c-3 -17 -6 -87 -6 -155 l0 -124 133 -1 c351 -3 891 0 962 6
97 7 187 46 249 109 41 43 113 173 101 185 -4 3 -327 7 -719 9 l-713 3 -7 -32z"/>
</g>
</svg>
